<?xml version="1.0"?>
<!DOCTYPE svg PUBLIC "-//W3C//DTD SVG 1.1//EN"
"http://www.w3.org/Graphics/SVG/1.1/DTD/svg11.dtd">
<svg version="1.1" xmlns="http://www.w3.org/2000/svg"
xmlns:xlink="http://www.w3.org/1999/xlink"
width="800px" height="600px"
viewBox="-4 -3 8 6"
preserveAspectRatio="xMidYMid">

    <!-- Ogólny model wiatraka -->
    <g id="windmill">
        <g transform="rotate(-20, 0, -1.625)">
            <!-- Rotating dodecagon on the left (center of left side of rectangle) -->
            <g transform="translate(-1, -1.625)">
                <polygon points="0,-0.25 0.125,-0.215 0.215,-0.125 0.25,0 0.215,0.125 0.125,0.215 0,0.25 -0.125,0.215 -0.215,0.125 -0.25,0 -0.215,-0.125 -0.125,-0.215" fill="none" stroke="black" stroke-width="0.01">
                    <animateTransform attributeName="transform" type="rotate" from="0 0 0" to="360 0 0" dur="5s" repeatCount="indefinite" />
                </polygon>
            </g>
            <!-- Rotating dodecagon on the right (center of right side of rectangle) -->
            <g transform="translate(1, -1.625)">
                <polygon points="0,-0.25 0.125,-0.215 0.215,-0.125 0.25,0 0.215,0.125 0.125,0.215 0,0.25 -0.125,0.215 -0.215,0.125 -0.25,0 -0.215,-0.125 -0.125,-0.215" fill="none" stroke="black" stroke-width="0.01">
                    <animateTransform attributeName="transform" type="rotate" from="0 0 0" to="360 0 0" dur="5s" repeatCount="indefinite" />
                </polygon>
            </g>
            <!-- Rectangle -->
            <rect x="-1" y="-1.725" width="2" height="0.2" fill="red" />
        </g>
        <!-- Triangle -->
        <polygon class="triangle" points="0,-1.625 -0.25,-0.125 0.25,-0.125" />
    </g>
    <g transform="translate(0, 0) scale(1)">
        <use xlink:href="#windmill" />
        <polygon class="triangle" points="0,-1.625 -0.25,-0.125 0.25,-0.125" fill="blue" />
    </g>
    <g transform="translate(-2, 0) scale(0.7)">
        <use xlink:href="#windmill" />
        <polygon class="triangle" points="0,-1.625 -0.25,-0.125 0.25,-0.125" fill="purple" />
    </g>
    <g transform="translate(2, 0) scale(0.5)">
        <use xlink:href="#windmill" />
        <polygon class="triangle" points="0,-1.625 -0.25,-0.125 0.25,-0.125" fill="green" />
    </g>

</svg>